# xmcd
#
# Track frame offsets: 
#        150
#        14087
#        27089
#        41991
#        56257
#        70162
#        84035
#        96451
#        114810
#        126866
#        137536
#        152982
#
# Disc length: 2207 seconds
#
# Revision: 0
# Processed by: cddbd v1.5.2PL0 Copyright (c) Steve Scherf et al.
# Submitted via: ExactAudioCopy v1.2
#
DISCID=98089d0c
DTITLE=Aaron Kaplan and Kevin Globerman - The Moonshine Music Co.: Chica
DTITLE=go Blues
DYEAR=2018
DGENRE=Blues
TTITLE0=Tear the Roof Off
TTITLE1=You Gotta Man Up
TTITLE2=You’ll Find a Way
TTITLE3=Gettin' Around
TTITLE4=Waitin’ for the Train
TTITLE5=No Time to Cry
TTITLE6=Treat You Right
TTITLE7=Sleepin’ on Skid Row
TTITLE8=Blues by My Side
TTITLE9=Strut Your Stuff
TTITLE10=Can’t See Straight No More
TTITLE11=Levee Livin'
EXTD=
EXTT0=
EXTT1=
EXTT2=
EXTT3=
EXTT4=
EXTT5=
EXTT6=
EXTT7=
EXTT8=
EXTT9=
EXTT10=
EXTT11=
PLAYORDER=
